<svg xmlns="http://www.w3.org/2000/svg" width="1400" height="560" viewBox="0 0 1400 560" role="img" aria-labelledby="t d"><title id="t">从任务到交付</title><desc id="d">明确工契后选择资料与工具，形成结果并通过验收</desc><defs><marker id="a" viewBox="0 0 10 10" refX="9" refY="5" markerWidth="7" markerHeight="7" orient="auto"><path d="M0 0L10 5L0 10Z" fill="#00C8FF"/></marker></defs><rect x="2" y="2" width="1396" height="556" rx="34" fill="#001A33" stroke="#005BAC" stroke-width="3"/><g opacity=".15" stroke="#4A90D9"><path d="M0 100H1400M0 200H1400M0 300H1400M0 400H1400M0 500H1400"/><path d="M140 0V560M420 0V560M700 0V560M980 0V560M1260 0V560"/></g><g font-family="Microsoft YaHei" text-anchor="middle"><rect x="55" y="180" width="230" height="180" rx="25" fill="#003A73" stroke="#4A90D9" stroke-width="4"/><text x="170" y="250" fill="white" font-size="38" font-weight="800">工契</text><text x="170" y="304" fill="#CCE5FF" font-size="24">目标 · 边界</text><rect x="335" y="180" width="230" height="180" rx="25" fill="#003A73" stroke="#00C8FF" stroke-width="4"/><text x="450" y="250" fill="white" font-size="38" font-weight="800">资料</text><text x="450" y="304" fill="#CCE5FF" font-size="24">文件 · 上下文</text><rect x="615" y="180" width="230" height="180" rx="25" fill="#003A73" stroke="#00C8FF" stroke-width="4"/><text x="730" y="250" fill="white" font-size="38" font-weight="800">工具</text><text x="730" y="304" fill="#CCE5FF" font-size="24">处理 · 执行</text><rect x="895" y="180" width="230" height="180" rx="25" fill="#003A73" stroke="#00C8FF" stroke-width="4"/><text x="1010" y="250" fill="white" font-size="38" font-weight="800">结果</text><text x="1010" y="304" fill="#CCE5FF" font-size="24">文档 · 数据</text><rect x="1175" y="180" width="170" height="180" rx="25" fill="#003A73" stroke="#F56C2D" stroke-width="4"/><text x="1260" y="250" fill="white" font-size="38" font-weight="800">验收</text><text x="1260" y="304" fill="#F56C2D" font-size="24">可用才算</text></g><g stroke="#00C8FF" stroke-width="7" marker-end="url(#a)"><path d="M285 270H315"/><path d="M565 270H595"/><path d="M845 270H875"/><path d="M1125 270H1155"/></g><text x="700" y="105" fill="#F56C2D" font-family="Microsoft YaHei" font-size="32" font-weight="800" text-anchor="middle">许愿池会冒泡；工作流要交付</text></svg>
