<svg xmlns="http://www.w3.org/2000/svg" width="1400" height="560" viewBox="0 0 1400 560" role="img" aria-labelledby="t d"><title id="t">Agent 工作循环</title><desc id="d">任务经过思考行动观察后决定继续或交付，并由人验收</desc><defs><marker id="a" viewBox="0 0 10 10" refX="9" refY="5" markerWidth="7" markerHeight="7" orient="auto"><path d="M0 0L10 5L0 10Z" fill="#00C8FF"/></marker><marker id="o" viewBox="0 0 10 10" refX="9" refY="5" markerWidth="7" markerHeight="7" orient="auto"><path d="M0 0L10 5L0 10Z" fill="#F56C2D"/></marker></defs><rect x="2" y="2" width="1396" height="556" rx="34" fill="#001A33" stroke="#005BAC" stroke-width="3"/><g opacity=".15" stroke="#4A90D9"><path d="M0 100H1400M0 200H1400M0 300H1400M0 400H1400M0 500H1400"/><path d="M140 0V560M420 0V560M700 0V560M980 0V560M1260 0V560"/></g><g font-family="Microsoft YaHei" text-anchor="middle"><rect x="65" y="170" width="250" height="160" rx="25" fill="#003A73" stroke="#4A90D9" stroke-width="4"/><text x="190" y="238" fill="white" font-size="40" font-weight="800">任务</text><text x="190" y="290" fill="#CCE5FF" font-size="25">目标与边界</text><rect x="390" y="170" width="250" height="160" rx="25" fill="#003A73" stroke="#00C8FF" stroke-width="4"/><text x="515" y="238" fill="white" font-size="40" font-weight="800">思考</text><text x="515" y="290" fill="#CCE5FF" font-size="25">选择下一步</text><rect x="715" y="170" width="250" height="160" rx="25" fill="#003A73" stroke="#00C8FF" stroke-width="4"/><text x="840" y="238" fill="white" font-size="40" font-weight="800">行动</text><text x="840" y="290" fill="#CCE5FF" font-size="25">调用限定工具</text><rect x="1040" y="170" width="250" height="160" rx="25" fill="#003A73" stroke="#00C8FF" stroke-width="4"/><text x="1165" y="238" fill="white" font-size="40" font-weight="800">观察</text><text x="1165" y="290" fill="#CCE5FF" font-size="25">读取结果</text></g><g stroke="#00C8FF" stroke-width="8" marker-end="url(#a)"><path d="M325 250H370"/><path d="M650 250H695"/><path d="M975 250H1020"/></g><path d="M1165 350C1100 480 530 500 500 350" fill="none" stroke="#F56C2D" stroke-width="6" stroke-dasharray="14 10" marker-end="url(#o)"/><text x="820" y="470" fill="#F56C2D" font-family="Microsoft YaHei" font-size="28" font-weight="800" text-anchor="middle">未达验收：回到思考</text><rect x="510" y="35" width="380" height="65" rx="32" fill="#002748" stroke="#F56C2D" stroke-width="3"/><text x="700" y="78" fill="#F56C2D" font-family="Microsoft YaHei" font-size="28" font-weight="800" text-anchor="middle">达到验收后，交给人确认</text></svg>
